<?xml version="1.0" encoding="UTF-8" standalone="no"?>
<!-- Created with Inkscape (http://www.inkscape.org/) -->

<svg
   xmlns:dc="http://purl.org/dc/elements/1.1/"
   xmlns:cc="http://creativecommons.org/ns#"
   xmlns:rdf="http://www.w3.org/1999/02/22-rdf-syntax-ns#"
   xmlns:svg="http://www.w3.org/2000/svg"
   xmlns="http://www.w3.org/2000/svg"
   xmlns:sodipodi="http://sodipodi.sourceforge.net/DTD/sodipodi-0.dtd"
   xmlns:inkscape="http://www.inkscape.org/namespaces/inkscape"
   width="470mm"
   height="100mm"
   viewBox="0 0 470 100"
   version="1.1"
   id="svg8"
   inkscape:version="0.92.5 (2060ec1f9f, 2020-04-08)"
   sodipodi:docname="logo_4_stevedore.svg">
  <defs
     id="defs2">
    <rect
       id="rect1996"
       height="55"
       width="77.942284"
       y="95"
       x="95.262794" />
  </defs>
  <sodipodi:namedview
     id="base"
     pagecolor="#ffffff"
     bordercolor="#666666"
     borderopacity="1.0"
     inkscape:pageopacity="0.0"
     inkscape:pageshadow="2"
     inkscape:zoom="0.24748737"
     inkscape:cx="114.42835"
     inkscape:cy="-317.39291"
     inkscape:document-units="mm"
     inkscape:current-layer="layer1"
     showgrid="false"
     inkscape:window-width="1920"
     inkscape:window-height="1016"
     inkscape:window-x="1920"
     inkscape:window-y="27"
     inkscape:window-maximized="1" />
  <metadata
     id="metadata5">
    <rdf:RDF>
      <cc:Work
         rdf:about="">
        <dc:format>image/svg+xml</dc:format>
        <dc:type
           rdf:resource="http://purl.org/dc/dcmitype/StillImage" />
        <dc:title></dc:title>
      </cc:Work>
    </rdf:RDF>
  </metadata>
  <g
     inkscape:label="Layer 1"
     inkscape:groupmode="layer"
     id="layer1"
     transform="translate(0,-197)">
    <g
       id="g972"
       transform="matrix(0.4525,0,0,0.4525,254.88273,179.80375)">
      <g
         transform="translate(0,-71.67634)"
         id="g956">
        <path
           inkscape:connector-curvature="0"
           style="fill:#aa0088;stroke:#aa0088;stroke-width:0.26458299px;stroke-linecap:butt;stroke-linejoin:miter;stroke-opacity:1"
           d="m -526.99118,257.67634 v -110 l 130.62178,35 v 110 z"
           id="path2770" />
        <g
           aria-label="s"
           id="text2752"
           style="font-size:88.19439697px;line-height:1.25;font-family:Marsek;-inkscape-font-specification:Marsek;letter-spacing:0px;word-spacing:0px;fill:#ffffff;stroke-width:0.26458299"
           transform="matrix(-1,0,0,1,-149.35343,207.72354)">
          <path
             inkscape:connector-curvature="0"
             d="M 358.977,-7.41778 V -27.9781 c 0,-4.6552 -1.603,-8.2341 -4.811,-10.7369 -3.207,-2.4165 -7.047,-3.0255 -11.52,-1.8269 l -60.513,16.085 c -5.148,1.3795 -9.368,4.5361 -12.659,9.4698 -2.532,3.7818 -3.798,7.87105 -3.798,12.2676 v 5.17241 c 0,0.17241 0.084,0.23601 0.253,0.19078 l 15.192,-3.94125 c 0.168,-0.04523 0.253,-0.15405 0.253,-0.32647 v -0.77586 c 0,-1.89655 0.675,-3.58608 2.025,-5.0686 1.013,-1.04723 2.11,-1.72915 3.292,-2.04575 l 51.271,-13.60886 c 1.688,-0.4522 3.081,-0.0926 4.178,1.0789 0.675,0.7674 1.013,1.8407 1.013,3.22 v 12.67244 c 0,0.77586 -0.296,1.54466 -0.887,2.30641 -0.506,0.73913 -1.181,1.22177 -2.025,1.44791 L 280.108,13.7152 c -3.967,1.0628 -7.385,3.4011 -10.254,7.0148 -2.786,3.6773 -4.178,7.5419 -4.178,11.5936 v 20.6897 c 0,4.6551 1.603,8.191 4.811,10.6075 3.207,2.5027 7.089,3.1435 11.646,1.9223 L 342.52,49.3627 c 4.557,-1.2212 8.439,-3.9425 11.646,-8.1639 3.208,-4.1352 4.811,-8.5304 4.811,-13.1855 v -5.6897 c 0,-0.1724 -0.084,-0.236 -0.253,-0.1908 l -15.318,4.1045 c -0.169,0.0452 -0.253,0.1541 -0.253,0.3265 v 0.7758 c 0,1.5518 -0.549,2.9918 -1.646,4.3203 -1.013,1.3921 -2.321,2.3029 -3.925,2.7326 L 286.944,47.961 c -1.519,0.4071 -2.827,0.1973 -3.924,-0.6294 -1.098,-0.7405 -1.646,-1.8867 -1.646,-3.4384 V 31.0915 c 0,-0.8621 0.295,-1.674 0.886,-2.4357 0.591,-0.6756 1.266,-1.1151 2.025,-1.3186 l 60.26,-16.1466 c 3.967,-1.0628 7.343,-3.43292 10.128,-7.11022 2.869,-3.613715 4.304,-7.44643 4.304,-11.49816 z"
             style="font-size:88.19439697px;fill:#ffffff;stroke-width:0.26458299"
             id="path2754" />
        </g>
      </g>
      <g
         aria-label="stevedore"
         id="text2821"
         style="font-size:105.83300018px;line-height:1.25;font-family:Marsek;-inkscape-font-specification:Marsek;letter-spacing:0px;word-spacing:0px;fill:#aa0088;stroke-width:0.26458299"
         transform="translate(-578.9053,75.33001)">
        <path
           inkscape:connector-curvature="0"
           d="m 310.38887,79.202492 v 16.8275 q 0,5.714998 -4.02167,9.842498 -4.02166,4.02167 -9.63083,4.02167 l -50.58833,0.10583 q -6.45584,0 -10.58334,-4.97416 -3.175,-3.81 -3.175,-9.207505 v -4.233333 q 0,-0.211667 0.21167,-0.211667 l 12.7,-0.105833 q 0.21167,0 0.21167,0.211667 v 0.635 q 0,2.328333 1.69333,3.704166 1.27,0.9525 2.75167,0.9525 l 42.8625,-0.105833 q 2.11666,0 3.4925,-1.799167 0.84666,-1.164166 0.84666,-2.8575 V 81.636658 q 0,-0.9525 -0.74083,-1.693333 -0.635,-0.740833 -1.69333,-0.740833 H 244.4547 q -4.97416,0 -8.5725,-3.4925 -3.4925,-3.598334 -3.4925,-8.572501 V 50.204158 q 0,-5.715001 4.02167,-9.736667 4.02167,-4.1275 9.73667,-4.1275 h 50.4825 q 5.715,0 9.73666,4.1275 4.02167,4.021666 4.02167,9.736667 v 4.656666 q 0,0.211667 -0.21167,0.211667 h -12.80583 q -0.21167,0 -0.21167,-0.211667 v -0.635 q 0,-1.905 -1.37583,-3.175 -1.27,-1.375833 -3.28083,-1.375833 H 250.1697 q -1.905,0 -3.28083,1.375833 -1.37583,1.27 -1.37583,3.175 v 10.477501 q 0,1.058333 0.74083,1.799166 0.74083,0.635 1.69333,0.635 h 50.37667 q 4.97417,0 8.46667,3.598334 3.59833,3.4925 3.59833,8.466667 z"
           style="font-size:105.83300018px;fill:#aa0088;stroke-width:0.26458299"
           id="path2823" />
        <path
           inkscape:connector-curvature="0"
           d="m 400.8218,36.339991 v 13.229167 h -29.63333 v 60.430832 h -14.2875 V 49.569158 H 327.26763 V 36.339991 Z"
           style="font-size:105.83300018px;fill:#aa0088;stroke-width:0.26458299"
           id="path2825" />
        <path
           inkscape:connector-curvature="0"
           d="m 482.57474,48.510824 h -50.27083 v 17.991667 h 41.48667 v 13.335001 h -41.48667 v 18.0975 h 50.27083 v 12.064998 h -64.77 V 36.339991 h 64.77 z"
           style="font-size:105.83300018px;fill:#aa0088;stroke-width:0.26458299"
           id="path2827" />
        <path
           inkscape:connector-curvature="0"
           d="m 560.40854,36.339991 h 15.02834 l -28.2575,73.659999 h -19.3675 L 499.66021,36.339991 h 14.9225 l 22.96583,61.489168 z"
           style="font-size:105.83300018px;fill:#aa0088;stroke-width:0.26458299"
           id="path2829" />
        <path
           inkscape:connector-curvature="0"
           d="m 657.0344,48.510824 h -50.27084 v 17.991667 h 41.48667 v 13.335001 h -41.48667 v 18.0975 h 50.27084 v 12.064998 h -64.77 V 36.339991 h 64.77 z"
           style="font-size:105.83300018px;fill:#aa0088;stroke-width:0.26458299"
           id="path2831" />
        <path
           inkscape:connector-curvature="0"
           d="m 734.33903,36.339991 q 6.45584,0 11.00667,4.656666 4.55083,4.550834 4.55083,10.900834 v 42.545001 q 0,6.455838 -4.55083,11.006668 -4.55083,4.55083 -11.00667,4.55083 H 674.11987 V 36.339991 Z m 2.32834,53.869168 V 56.236658 q 0,-2.751667 -2.01084,-4.656667 -1.905,-2.010833 -4.65666,-2.010833 h -42.65084 v 47.201667 h 42.65084 q 2.75166,0 4.65666,-1.905 2.01084,-1.905 2.01084,-4.656666 z"
           style="font-size:105.83300018px;fill:#aa0088;stroke-width:0.26458299"
           id="path2833" />
        <path
           inkscape:connector-curvature="0"
           d="m 830.95989,36.339991 q 6.6675,0 11.43,4.7625 4.7625,4.7625 4.7625,11.43 v 41.275001 q 0,6.667498 -4.7625,11.429998 -4.7625,4.7625 -11.43,4.7625 h -47.83667 q -6.77334,0 -11.53584,-4.7625 -4.65666,-4.7625 -4.65666,-11.429998 V 52.532491 q 0,-6.6675 4.65666,-11.43 4.7625,-4.7625 11.53584,-4.7625 z m 2.96333,53.763334 V 56.236658 q 0,-2.751667 -2.01083,-4.656667 -1.905,-2.010833 -4.65667,-2.010833 h -40.53417 q -2.75167,0 -4.7625,2.010833 -1.905,1.905 -1.905,4.656667 v 33.866667 q 0,2.751667 1.905,4.7625 2.01083,1.905 4.7625,1.905 h 40.53417 q 2.75167,0 4.65667,-1.905 2.01083,-2.010833 2.01083,-4.7625 z"
           style="font-size:105.83300018px;fill:#aa0088;stroke-width:0.26458299"
           id="path2835" />
        <path
           inkscape:connector-curvature="0"
           d="M 918.69245,109.99999 903.98162,87.986659 h -25.61167 v 22.013331 h -14.2875 V 36.339991 h 58.63167 q 5.715,0 9.73667,4.1275 4.02166,4.021666 4.02166,9.630833 v 24.235834 q 0,5.291667 -3.59833,9.2075 -3.4925,3.81 -8.67833,4.445001 l -4.55084,0.423333 14.39334,21.589998 z m -40.3225,-60.430832 v 25.294167 h 40.53417 q 1.79917,0 3.06917,-1.27 1.27,-1.375834 1.27,-3.175 V 54.014158 q 0,-1.905 -1.27,-3.175 -1.27,-1.27 -3.06917,-1.27 z"
           style="font-size:105.83300018px;fill:#aa0088;stroke-width:0.26458299"
           id="path2837" />
        <path
           inkscape:connector-curvature="0"
           d="m 1018.1493,48.510824 h -50.27081 v 17.991667 h 41.48671 v 13.335001 h -41.48671 v 18.0975 h 50.27081 V 109.99999 H 953.37933 V 36.339991 h 64.76997 z"
           style="font-size:105.83300018px;fill:#aa0088;stroke-width:0.26458299"
           id="path2839" />
      </g>
    </g>
  </g>
</svg>
